<svg xmlns="http://www.w3.org/2000/svg" width="1536" height="768" viewBox="0 0 512 256"><rect width="512" height="256" fill="#fff"/><g transform="translate(0,0)"><polyline points="56.91,62.17 53.37,74.00 45.62,68.79" stroke="#d54f4f" stroke-width="7" stroke-linecap="round" stroke-linejoin="round" fill="none"/><polyline points="59.49,79.06 48.08,84.50 46.47,101.29" stroke="#d54f4f" stroke-width="8" stroke-linecap="round" stroke-linejoin="round" fill="none"/><polyline points="49.30,104.56 42.23,100.47" stroke="#d54f4f" stroke-width="9" stroke-linecap="round" stroke-linejoin="round" fill="none"/><circle cx="47.18" cy="105.78" r="1.5" fill="#142222"/><polyline points="68.51,74.84 64.72,90.24 75.80,109.24" stroke="#287bc1" stroke-width="8" stroke-linecap="round" stroke-linejoin="round" fill="none"/><polyline points="78.63,112.51 71.56,108.42" stroke="#287bc1" stroke-width="9" stroke-linecap="round" stroke-linejoin="round" fill="none"/><circle cx="76.51" cy="113.73" r="1.5" fill="#142222"/><polygon points="68.97,52.95 56.91,62.17 59.49,79.06 68.51,74.84" fill="#bcc4c8" stroke="#36414a" stroke-width=".5"/><polygon points="65.41,62.26 48.44,72.05 48.44,58.17 65.41,48.37" fill="#b28e58" stroke="#36414a" stroke-width=".5"/><polyline points="68.97,52.95 66.85,63.98 61.17,59.81" stroke="#287bc1" stroke-width="7" stroke-linecap="round" stroke-linejoin="round" fill="none"/><ellipse cx="62.94" cy="38.78" rx="16" ry="18" fill="#c5c9c8" stroke="#36414a" stroke-width=".7"/></g><g transform="translate(128,0)"><polyline points="56.92,62.40 53.38,74.24 45.62,69.01" stroke="#d54f4f" stroke-width="7" stroke-linecap="round" stroke-linejoin="round" fill="none"/><polyline points="59.50,79.29 47.83,84.24 47.82,102.07" stroke="#d54f4f" stroke-width="8" stroke-linecap="round" stroke-linejoin="round" fill="none"/><polyline points="50.65,105.33 43.58,101.25" stroke="#d54f4f" stroke-width="9" stroke-linecap="round" stroke-linejoin="round" fill="none"/><circle cx="48.53" cy="106.56" r="1.5" fill="#142222"/><polyline points="68.50,75.07 65.69,91.26 77.15,110.02" stroke="#287bc1" stroke-width="8" stroke-linecap="round" stroke-linejoin="round" fill="none"/><polyline points="79.98,113.28 72.91,109.20" stroke="#287bc1" stroke-width="9" stroke-linecap="round" stroke-linejoin="round" fill="none"/><circle cx="77.86" cy="114.51" r="1.5" fill="#142222"/><polygon points="68.96,53.18 56.92,62.40 59.50,79.29 68.50,75.07" fill="#bcc4c8" stroke="#36414a" stroke-width=".5"/><polygon points="65.41,62.48 48.44,72.28 48.44,58.40 65.41,48.60" fill="#b28e58" stroke="#36414a" stroke-width=".5"/><polyline points="68.96,53.18 66.84,64.20 61.17,60.03" stroke="#287bc1" stroke-width="7" stroke-linecap="round" stroke-linejoin="round" fill="none"/><ellipse cx="62.94" cy="39.01" rx="16" ry="18" fill="#c5c9c8" stroke="#36414a" stroke-width=".7"/></g><g transform="translate(256,0)"><polyline points="56.89,62.83 53.35,74.67 45.62,69.46" stroke="#d54f4f" stroke-width="7" stroke-linecap="round" stroke-linejoin="round" fill="none"/><polyline points="59.52,79.75 47.58,84.18 49.17,102.84" stroke="#d54f4f" stroke-width="8" stroke-linecap="round" stroke-linejoin="round" fill="none"/><polyline points="52.00,106.11 44.92,102.03" stroke="#d54f4f" stroke-width="9" stroke-linecap="round" stroke-linejoin="round" fill="none"/><circle cx="49.87" cy="107.34" r="1.5" fill="#142222"/><polyline points="68.48,75.49 66.59,92.38 78.50,110.80" stroke="#287bc1" stroke-width="8" stroke-linecap="round" stroke-linejoin="round" fill="none"/><polyline points="81.32,114.06 74.25,109.98" stroke="#287bc1" stroke-width="9" stroke-linecap="round" stroke-linejoin="round" fill="none"/><circle cx="79.20" cy="115.29" r="1.5" fill="#142222"/><polygon points="68.99,53.63 56.89,62.83 59.52,79.75 68.48,75.49" fill="#bcc4c8" stroke="#36414a" stroke-width=".5"/><polygon points="65.41,62.92 48.44,72.72 48.44,58.84 65.41,49.04" fill="#b28e58" stroke="#36414a" stroke-width=".5"/><polyline points="68.99,53.63 66.87,64.66 61.17,60.48" stroke="#287bc1" stroke-width="7" stroke-linecap="round" stroke-linejoin="round" fill="none"/><ellipse cx="62.94" cy="39.45" rx="16" ry="18" fill="#c5c9c8" stroke="#36414a" stroke-width=".7"/></g><g transform="translate(384,0)"><polyline points="56.82,63.09 53.28,74.93 45.62,69.76" stroke="#d54f4f" stroke-width="7" stroke-linecap="round" stroke-linejoin="round" fill="none"/><polyline points="59.56,80.07 47.57,84.40 50.51,103.62" stroke="#d54f4f" stroke-width="8" stroke-linecap="round" stroke-linejoin="round" fill="none"/><polyline points="53.34,106.89 46.27,102.81" stroke="#d54f4f" stroke-width="9" stroke-linecap="round" stroke-linejoin="round" fill="none"/><circle cx="51.22" cy="108.11" r="1.5" fill="#142222"/><polyline points="68.44,75.77 67.65,93.40 79.84,111.57" stroke="#287bc1" stroke-width="8" stroke-linecap="round" stroke-linejoin="round" fill="none"/><polyline points="82.67,114.84 75.60,110.76" stroke="#287bc1" stroke-width="9" stroke-linecap="round" stroke-linejoin="round" fill="none"/><circle cx="80.55" cy="116.06" r="1.5" fill="#142222"/><polygon points="69.06,53.96 56.82,63.09 59.56,80.07 68.44,75.77" fill="#bcc4c8" stroke="#36414a" stroke-width=".5"/><polygon points="65.41,63.22 48.44,73.02 48.44,59.14 65.41,49.34" fill="#b28e58" stroke="#36414a" stroke-width=".5"/><polyline points="69.06,53.96 66.94,64.99 61.17,60.77" stroke="#287bc1" stroke-width="7" stroke-linecap="round" stroke-linejoin="round" fill="none"/><ellipse cx="62.94" cy="39.75" rx="16" ry="18" fill="#c5c9c8" stroke="#36414a" stroke-width=".7"/></g><g transform="translate(0,128)"><polyline points="56.71,62.97 53.17,74.81 45.62,69.68" stroke="#d54f4f" stroke-width="7" stroke-linecap="round" stroke-linejoin="round" fill="none"/><polyline points="59.61,80.03 47.87,84.84 51.86,104.40" stroke="#d54f4f" stroke-width="8" stroke-linecap="round" stroke-linejoin="round" fill="none"/><polyline points="54.69,107.67 47.62,103.58" stroke="#d54f4f" stroke-width="9" stroke-linecap="round" stroke-linejoin="round" fill="none"/><circle cx="52.57" cy="108.89" r="1.5" fill="#142222"/><polyline points="68.39,75.66 68.41,93.78 80.71,111.85" stroke="#287bc1" stroke-width="8" stroke-linecap="round" stroke-linejoin="round" fill="none"/><polyline points="83.53,115.12 76.46,111.04" stroke="#287bc1" stroke-width="9" stroke-linecap="round" stroke-linejoin="round" fill="none"/><polygon points="69.17,53.94 56.71,62.97 59.61,80.03 68.39,75.66" fill="#bcc4c8" stroke="#36414a" stroke-width=".5"/><polygon points="65.41,63.15 48.44,72.95 48.44,59.06 65.41,49.27" fill="#b28e58" stroke="#36414a" stroke-width=".5"/><polyline points="69.17,53.94 67.05,64.96 61.17,60.70" stroke="#287bc1" stroke-width="7" stroke-linecap="round" stroke-linejoin="round" fill="none"/><ellipse cx="62.94" cy="39.67" rx="16" ry="18" fill="#c5c9c8" stroke="#36414a" stroke-width=".7"/></g><g transform="translate(128,128)"><polyline points="56.56,62.59 53.03,74.43 45.62,69.37" stroke="#d54f4f" stroke-width="7" stroke-linecap="round" stroke-linejoin="round" fill="none"/><polyline points="59.67,79.76 48.38,85.41 53.21,105.18" stroke="#d54f4f" stroke-width="8" stroke-linecap="round" stroke-linejoin="round" fill="none"/><polyline points="56.04,108.44 48.97,104.36" stroke="#d54f4f" stroke-width="9" stroke-linecap="round" stroke-linejoin="round" fill="none"/><circle cx="53.92" cy="109.67" r="1.5" fill="#142222"/><polyline points="68.33,75.31 67.60,92.99 80.22,110.75" stroke="#287bc1" stroke-width="8" stroke-linecap="round" stroke-linejoin="round" fill="none"/><polyline points="83.05,114.01 75.98,109.93" stroke="#287bc1" stroke-width="9" stroke-linecap="round" stroke-linejoin="round" fill="none"/><polygon points="69.32,53.70 56.56,62.59 59.67,79.76 68.33,75.31" fill="#bcc4c8" stroke="#36414a" stroke-width=".5"/><polygon points="65.41,62.84 48.44,72.64 48.44,58.76 65.41,48.96" fill="#b28e58" stroke="#36414a" stroke-width=".5"/><polyline points="69.32,53.70 67.19,64.72 61.17,60.39" stroke="#287bc1" stroke-width="7" stroke-linecap="round" stroke-linejoin="round" fill="none"/><ellipse cx="62.94" cy="39.37" rx="16" ry="18" fill="#c5c9c8" stroke="#36414a" stroke-width=".7"/></g><g transform="translate(256,128)"><polyline points="56.40,62.08 52.86,73.92 45.62,68.94" stroke="#d54f4f" stroke-width="7" stroke-linecap="round" stroke-linejoin="round" fill="none"/><polyline points="59.74,79.37 49.06,86.06 54.56,105.96" stroke="#d54f4f" stroke-width="8" stroke-linecap="round" stroke-linejoin="round" fill="none"/><polyline points="57.38,109.22 50.31,105.14" stroke="#d54f4f" stroke-width="9" stroke-linecap="round" stroke-linejoin="round" fill="none"/><circle cx="55.26" cy="110.45" r="1.5" fill="#142222"/><polyline points="68.26,74.83 65.63,91.19 78.60,108.55" stroke="#287bc1" stroke-width="8" stroke-linecap="round" stroke-linejoin="round" fill="none"/><polyline points="81.43,111.82 74.36,107.74" stroke="#287bc1" stroke-width="9" stroke-linecap="round" stroke-linejoin="round" fill="none"/><polygon points="69.48,53.34 56.40,62.08 59.74,79.37 68.26,74.83" fill="#bcc4c8" stroke="#36414a" stroke-width=".5"/><polygon points="65.41,62.40 48.44,72.20 48.44,58.32 65.41,48.52" fill="#b28e58" stroke="#36414a" stroke-width=".5"/><polyline points="69.48,53.34 67.36,64.37 61.17,59.96" stroke="#287bc1" stroke-width="7" stroke-linecap="round" stroke-linejoin="round" fill="none"/><ellipse cx="62.94" cy="38.93" rx="16" ry="18" fill="#c5c9c8" stroke="#36414a" stroke-width=".7"/></g><g transform="translate(384,128)"><polyline points="56.21,61.51 52.68,73.35 45.62,68.46" stroke="#d54f4f" stroke-width="7" stroke-linecap="round" stroke-linejoin="round" fill="none"/><polyline points="59.82,78.95 49.84,86.77 55.90,106.73" stroke="#d54f4f" stroke-width="8" stroke-linecap="round" stroke-linejoin="round" fill="none"/><polyline points="58.73,110.00 51.66,105.92" stroke="#d54f4f" stroke-width="9" stroke-linecap="round" stroke-linejoin="round" fill="none"/><circle cx="56.61" cy="111.22" r="1.5" fill="#142222"/><polyline points="68.18,74.31 63.02,88.48 76.09,105.72" stroke="#287bc1" stroke-width="8" stroke-linecap="round" stroke-linejoin="round" fill="none"/><polyline points="78.92,108.99 71.85,104.90" stroke="#287bc1" stroke-width="9" stroke-linecap="round" stroke-linejoin="round" fill="none"/><polygon points="69.67,52.96 56.21,61.51 59.82,78.95 68.18,74.31" fill="#bcc4c8" stroke="#36414a" stroke-width=".5"/><polygon points="65.41,61.93 48.44,71.73 48.44,57.85 65.41,48.05" fill="#b28e58" stroke="#36414a" stroke-width=".5"/><polyline points="69.67,52.96 67.55,63.99 61.17,59.48" stroke="#287bc1" stroke-width="7" stroke-linecap="round" stroke-linejoin="round" fill="none"/><ellipse cx="62.94" cy="38.46" rx="16" ry="18" fill="#c5c9c8" stroke="#36414a" stroke-width=".7"/></g></svg>