<svg xmlns="http://www.w3.org/2000/svg" width="1536" height="768" viewBox="0 0 512 256"><rect width="512" height="256" fill="#fff"/><g transform="translate(0,0)"><polyline points="57.97,52.51 62.73,61.61 62.71,73.05" stroke="#287bc1" stroke-width="7" stroke-linecap="round" stroke-linejoin="round" fill="none"/><polyline points="59.49,73.78 49.18,93.19 46.47,112.55" stroke="#287bc1" stroke-width="8" stroke-linecap="round" stroke-linejoin="round" fill="none"/><polyline points="49.30,112.55 42.23,116.63" stroke="#287bc1" stroke-width="9" stroke-linecap="round" stroke-linejoin="round" fill="none"/><circle cx="47.18" cy="116.22" r="1.5" fill="#142222"/><polyline points="68.51,78.00 65.50,97.26 75.80,104.59" stroke="#d54f4f" stroke-width="8" stroke-linecap="round" stroke-linejoin="round" fill="none"/><polyline points="78.63,104.59 71.56,108.68" stroke="#d54f4f" stroke-width="9" stroke-linecap="round" stroke-linejoin="round" fill="none"/><circle cx="76.51" cy="108.27" r="1.5" fill="#142222"/><polygon points="57.97,52.51 70.03,61.72 68.51,78.00 59.49,73.78" fill="#bcc4c8" stroke="#36414a" stroke-width=".5"/><polyline points="70.03,61.72 65.27,76.32 59.19,88.85" stroke="#d54f4f" stroke-width="7" stroke-linecap="round" stroke-linejoin="round" fill="none"/><ellipse cx="64.00" cy="38.33" rx="16" ry="18" fill="#c5c9c8" stroke="#36414a" stroke-width=".7"/><path d="M53.0,41.331804297432384 l-7,3 l7,2" fill="#858d8e"/></g><g transform="translate(128,0)"><polyline points="57.77,53.49 61.52,63.65 60.84,75.44" stroke="#287bc1" stroke-width="7" stroke-linecap="round" stroke-linejoin="round" fill="none"/><polyline points="59.61,74.60 48.56,93.62 51.86,109.44" stroke="#287bc1" stroke-width="8" stroke-linecap="round" stroke-linejoin="round" fill="none"/><polyline points="54.69,109.44 47.62,113.52" stroke="#287bc1" stroke-width="9" stroke-linecap="round" stroke-linejoin="round" fill="none"/><circle cx="52.57" cy="113.11" r="1.5" fill="#142222"/><polyline points="68.39,78.97 69.20,96.29 80.71,101.55" stroke="#d54f4f" stroke-width="8" stroke-linecap="round" stroke-linejoin="round" fill="none"/><polyline points="83.53,101.55 76.46,105.63" stroke="#d54f4f" stroke-width="9" stroke-linecap="round" stroke-linejoin="round" fill="none"/><polygon points="57.77,53.49 70.23,62.52 68.39,78.97 59.61,74.60" fill="#bcc4c8" stroke="#36414a" stroke-width=".5"/><polyline points="70.23,62.52 66.48,77.01 60.93,89.68" stroke="#d54f4f" stroke-width="7" stroke-linecap="round" stroke-linejoin="round" fill="none"/><ellipse cx="64.00" cy="39.22" rx="16" ry="18" fill="#c5c9c8" stroke="#36414a" stroke-width=".7"/><path d="M53.0,42.22389060089131 l-7,3 l7,2" fill="#858d8e"/></g><g transform="translate(256,0)"><polyline points="57.08,52.20 57.57,64.97 54.76,77.55" stroke="#287bc1" stroke-width="7" stroke-linecap="round" stroke-linejoin="round" fill="none"/><polyline points="59.90,72.78 51.49,92.79 57.25,106.32" stroke="#287bc1" stroke-width="8" stroke-linecap="round" stroke-linejoin="round" fill="none"/><polyline points="60.08,106.32 53.01,110.41" stroke="#287bc1" stroke-width="9" stroke-linecap="round" stroke-linejoin="round" fill="none"/><circle cx="57.96" cy="110.00" r="1.5" fill="#142222"/><polyline points="68.10,77.52 60.73,97.52 72.94,101.37" stroke="#d54f4f" stroke-width="8" stroke-linecap="round" stroke-linejoin="round" fill="none"/><polyline points="75.77,101.37 68.70,105.45" stroke="#d54f4f" stroke-width="9" stroke-linecap="round" stroke-linejoin="round" fill="none"/><polygon points="57.08,52.20 70.92,60.54 68.10,77.52 59.90,72.78" fill="#bcc4c8" stroke="#36414a" stroke-width=".5"/><polyline points="70.92,60.54 70.43,73.87 66.80,86.60" stroke="#d54f4f" stroke-width="7" stroke-linecap="round" stroke-linejoin="round" fill="none"/><ellipse cx="64.00" cy="37.59" rx="16" ry="18" fill="#c5c9c8" stroke="#36414a" stroke-width=".7"/><path d="M53.0,40.589302719151235 l-7,3 l7,2" fill="#858d8e"/></g><g transform="translate(384,0)"><polyline points="56.37,52.02 53.28,66.37 48.25,79.12" stroke="#287bc1" stroke-width="7" stroke-linecap="round" stroke-linejoin="round" fill="none"/><polyline points="60.21,72.00 54.81,92.04 62.64,103.21" stroke="#287bc1" stroke-width="8" stroke-linecap="round" stroke-linejoin="round" fill="none"/><polyline points="65.46,103.21 58.39,107.30" stroke="#287bc1" stroke-width="9" stroke-linecap="round" stroke-linejoin="round" fill="none"/><circle cx="63.34" cy="106.89" r="1.5" fill="#142222"/><polyline points="67.79,77.07 55.38,95.10 58.86,110.42" stroke="#d54f4f" stroke-width="8" stroke-linecap="round" stroke-linejoin="round" fill="none"/><polyline points="61.69,110.42 54.62,114.51" stroke="#d54f4f" stroke-width="9" stroke-linecap="round" stroke-linejoin="round" fill="none"/><polygon points="56.37,52.02 71.63,59.49 67.79,77.07 60.21,72.00" fill="#bcc4c8" stroke="#36414a" stroke-width=".5"/><polyline points="71.63,59.49 74.72,70.27 73.44,82.35" stroke="#d54f4f" stroke-width="7" stroke-linecap="round" stroke-linejoin="round" fill="none"/><ellipse cx="64.00" cy="36.98" rx="16" ry="18" fill="#c5c9c8" stroke="#36414a" stroke-width=".7"/><path d="M53.0,39.975924719967736 l-7,3 l7,2" fill="#858d8e"/></g><g transform="translate(0,128)"><polyline points="56.02,53.63 51.26,68.23 45.19,80.76" stroke="#287bc1" stroke-width="7" stroke-linecap="round" stroke-linejoin="round" fill="none"/><polyline points="60.35,73.29 57.56,92.67 68.02,100.10" stroke="#287bc1" stroke-width="8" stroke-linecap="round" stroke-linejoin="round" fill="none"/><polyline points="70.85,100.10 63.78,104.19" stroke="#287bc1" stroke-width="9" stroke-linecap="round" stroke-linejoin="round" fill="none"/><circle cx="68.73" cy="103.78" r="1.5" fill="#142222"/><polyline points="67.65,78.49 57.17,97.81 54.25,117.04" stroke="#d54f4f" stroke-width="8" stroke-linecap="round" stroke-linejoin="round" fill="none"/><polyline points="57.08,117.04 50.01,121.12" stroke="#d54f4f" stroke-width="9" stroke-linecap="round" stroke-linejoin="round" fill="none"/><circle cx="54.96" cy="120.71" r="1.5" fill="#142222"/><polygon points="56.02,53.63 71.98,60.59 67.65,78.49 60.35,73.29" fill="#bcc4c8" stroke="#36414a" stroke-width=".5"/><polyline points="71.98,60.59 76.74,69.70 76.71,81.14" stroke="#d54f4f" stroke-width="7" stroke-linecap="round" stroke-linejoin="round" fill="none"/><ellipse cx="64.00" cy="38.33" rx="16" ry="18" fill="#c5c9c8" stroke="#36414a" stroke-width=".7"/><path d="M53.0,41.331804297432384 l-7,3 l7,2" fill="#858d8e"/></g><g transform="translate(128,128)"><polyline points="56.18,54.40 52.43,68.89 46.88,81.56" stroke="#287bc1" stroke-width="7" stroke-linecap="round" stroke-linejoin="round" fill="none"/><polyline points="60.21,74.25 61.26,91.71 72.93,97.06" stroke="#287bc1" stroke-width="8" stroke-linecap="round" stroke-linejoin="round" fill="none"/><polyline points="75.76,97.06 68.68,101.14" stroke="#287bc1" stroke-width="9" stroke-linecap="round" stroke-linejoin="round" fill="none"/><polyline points="67.79,79.32 56.58,98.25 59.64,113.93" stroke="#d54f4f" stroke-width="8" stroke-linecap="round" stroke-linejoin="round" fill="none"/><polyline points="62.47,113.93 55.40,118.01" stroke="#d54f4f" stroke-width="9" stroke-linecap="round" stroke-linejoin="round" fill="none"/><circle cx="60.35" cy="117.60" r="1.5" fill="#142222"/><polygon points="56.18,54.40 71.82,61.60 67.79,79.32 60.21,74.25" fill="#bcc4c8" stroke="#36414a" stroke-width=".5"/><polyline points="71.82,61.60 75.57,71.76 74.90,83.56" stroke="#d54f4f" stroke-width="7" stroke-linecap="round" stroke-linejoin="round" fill="none"/><ellipse cx="64.00" cy="39.22" rx="16" ry="18" fill="#c5c9c8" stroke="#36414a" stroke-width=".7"/><path d="M53.0,42.22389060089131 l-7,3 l7,2" fill="#858d8e"/></g><g transform="translate(256,128)"><polyline points="56.78,52.37 56.29,65.71 52.66,78.44" stroke="#287bc1" stroke-width="7" stroke-linecap="round" stroke-linejoin="round" fill="none"/><polyline points="59.90,72.78 52.78,92.93 65.16,96.88" stroke="#287bc1" stroke-width="8" stroke-linecap="round" stroke-linejoin="round" fill="none"/><polyline points="67.99,96.88 60.92,100.96" stroke="#287bc1" stroke-width="9" stroke-linecap="round" stroke-linejoin="round" fill="none"/><polyline points="68.10,77.52 59.49,97.41 65.03,110.82" stroke="#d54f4f" stroke-width="8" stroke-linecap="round" stroke-linejoin="round" fill="none"/><polyline points="67.86,110.82 60.78,114.90" stroke="#d54f4f" stroke-width="9" stroke-linecap="round" stroke-linejoin="round" fill="none"/><circle cx="65.73" cy="114.49" r="1.5" fill="#142222"/><polygon points="56.78,52.37 71.22,60.37 68.10,77.52 59.90,72.78" fill="#bcc4c8" stroke="#36414a" stroke-width=".5"/><polyline points="71.22,60.37 71.71,73.13 68.90,85.72" stroke="#d54f4f" stroke-width="7" stroke-linecap="round" stroke-linejoin="round" fill="none"/><ellipse cx="64.00" cy="37.59" rx="16" ry="18" fill="#c5c9c8" stroke="#36414a" stroke-width=".7"/><path d="M53.0,40.589302719151235 l-7,3 l7,2" fill="#858d8e"/></g><g transform="translate(384,128)"><polyline points="57.54,51.35 60.62,62.14 59.35,74.21" stroke="#287bc1" stroke-width="7" stroke-linecap="round" stroke-linejoin="round" fill="none"/><polyline points="59.61,72.35 47.36,90.47 51.08,105.93" stroke="#287bc1" stroke-width="8" stroke-linecap="round" stroke-linejoin="round" fill="none"/><polyline points="53.91,105.93 46.84,110.02" stroke="#287bc1" stroke-width="9" stroke-linecap="round" stroke-linejoin="round" fill="none"/><polyline points="68.39,76.72 62.78,96.64 70.41,107.70" stroke="#d54f4f" stroke-width="8" stroke-linecap="round" stroke-linejoin="round" fill="none"/><polyline points="73.24,107.70 66.17,111.79" stroke="#d54f4f" stroke-width="9" stroke-linecap="round" stroke-linejoin="round" fill="none"/><circle cx="71.12" cy="111.38" r="1.5" fill="#142222"/><polygon points="57.54,51.35 70.46,60.16 68.39,76.72 59.61,72.35" fill="#bcc4c8" stroke="#36414a" stroke-width=".5"/><polyline points="70.46,60.16 67.38,74.51 62.34,87.26" stroke="#d54f4f" stroke-width="7" stroke-linecap="round" stroke-linejoin="round" fill="none"/><ellipse cx="64.00" cy="36.98" rx="16" ry="18" fill="#c5c9c8" stroke="#36414a" stroke-width=".7"/><path d="M53.0,39.975924719967736 l-7,3 l7,2" fill="#858d8e"/></g></svg>