<svg xmlns="http://www.w3.org/2000/svg" width="1536" height="768" viewBox="0 0 512 256"><rect width="512" height="256" fill="#fff"/><g transform="translate(0,0)"><polyline points="56.02,53.63 51.26,68.23 45.19,80.76" stroke="#287bc1" stroke-width="7" stroke-linecap="round" stroke-linejoin="round" fill="none"/><polyline points="60.35,73.29 57.56,92.67 68.02,100.10" stroke="#287bc1" stroke-width="8" stroke-linecap="round" stroke-linejoin="round" fill="none"/><polyline points="70.85,100.10 63.78,104.19" stroke="#287bc1" stroke-width="9" stroke-linecap="round" stroke-linejoin="round" fill="none"/><circle cx="68.73" cy="103.78" r="1.5" fill="#142222"/><polyline points="67.65,78.49 57.17,97.81 54.25,117.04" stroke="#d54f4f" stroke-width="8" stroke-linecap="round" stroke-linejoin="round" fill="none"/><polyline points="57.08,117.04 50.01,121.12" stroke="#d54f4f" stroke-width="9" stroke-linecap="round" stroke-linejoin="round" fill="none"/><circle cx="54.96" cy="120.71" r="1.5" fill="#142222"/><polygon points="56.02,53.63 71.98,60.59 67.65,78.49 60.35,73.29" fill="#bcc4c8" stroke="#36414a" stroke-width=".5"/><polyline points="71.98,60.59 76.74,69.70 76.71,81.14" stroke="#d54f4f" stroke-width="7" stroke-linecap="round" stroke-linejoin="round" fill="none"/><ellipse cx="64.00" cy="38.33" rx="16" ry="18" fill="#c5c9c8" stroke="#36414a" stroke-width=".7"/><path d="M53.0,41.331804297432384 l-7,3 l7,2" fill="#858d8e"/></g><g transform="translate(128,0)"><polyline points="56.01,53.86 51.25,68.46 45.16,80.99" stroke="#287bc1" stroke-width="7" stroke-linecap="round" stroke-linejoin="round" fill="none"/><polyline points="60.34,73.52 58.53,92.52 69.37,99.33" stroke="#287bc1" stroke-width="8" stroke-linecap="round" stroke-linejoin="round" fill="none"/><polyline points="72.20,99.33 65.13,103.41" stroke="#287bc1" stroke-width="9" stroke-linecap="round" stroke-linejoin="round" fill="none"/><circle cx="70.08" cy="103.00" r="1.5" fill="#142222"/><polyline points="67.66,78.72 56.73,97.81 55.60,116.26" stroke="#d54f4f" stroke-width="8" stroke-linecap="round" stroke-linejoin="round" fill="none"/><polyline points="58.43,116.26 51.36,120.34" stroke="#d54f4f" stroke-width="9" stroke-linecap="round" stroke-linejoin="round" fill="none"/><circle cx="56.31" cy="119.93" r="1.5" fill="#142222"/><polygon points="56.01,53.86 71.99,60.81 67.66,78.72 60.34,73.52" fill="#bcc4c8" stroke="#36414a" stroke-width=".5"/><polyline points="71.99,60.81 76.75,69.92 76.75,81.35" stroke="#d54f4f" stroke-width="7" stroke-linecap="round" stroke-linejoin="round" fill="none"/><ellipse cx="64.00" cy="38.56" rx="16" ry="18" fill="#c5c9c8" stroke="#36414a" stroke-width=".7"/><path d="M53.0,41.559051880991376 l-7,3 l7,2" fill="#858d8e"/></g><g transform="translate(256,0)"><polyline points="56.04,54.29 51.45,68.88 45.44,81.43" stroke="#287bc1" stroke-width="7" stroke-linecap="round" stroke-linejoin="round" fill="none"/><polyline points="60.31,73.97 59.41,92.55 70.72,98.55" stroke="#287bc1" stroke-width="8" stroke-linecap="round" stroke-linejoin="round" fill="none"/><polyline points="73.55,98.55 66.47,102.63" stroke="#287bc1" stroke-width="9" stroke-linecap="round" stroke-linejoin="round" fill="none"/><circle cx="71.42" cy="102.22" r="1.5" fill="#142222"/><polyline points="67.69,79.15 56.36,98.01 56.95,115.48" stroke="#d54f4f" stroke-width="8" stroke-linecap="round" stroke-linejoin="round" fill="none"/><polyline points="59.77,115.48 52.70,119.56" stroke="#d54f4f" stroke-width="9" stroke-linecap="round" stroke-linejoin="round" fill="none"/><circle cx="57.65" cy="119.16" r="1.5" fill="#142222"/><polygon points="56.04,54.29 71.96,61.27 67.69,79.15 60.31,73.97" fill="#bcc4c8" stroke="#36414a" stroke-width=".5"/><polyline points="71.96,61.27 76.55,70.56 76.45,82.06" stroke="#d54f4f" stroke-width="7" stroke-linecap="round" stroke-linejoin="round" fill="none"/><ellipse cx="64.00" cy="39.00" rx="16" ry="18" fill="#c5c9c8" stroke="#36414a" stroke-width=".7"/><path d="M53.0,42.00158664897465 l-7,3 l7,2" fill="#858d8e"/></g><g transform="translate(384,0)"><polyline points="56.09,54.54 51.84,69.11 46.01,81.71" stroke="#287bc1" stroke-width="7" stroke-linecap="round" stroke-linejoin="round" fill="none"/><polyline points="60.27,74.29 60.48,92.27 72.06,97.77" stroke="#287bc1" stroke-width="8" stroke-linecap="round" stroke-linejoin="round" fill="none"/><polyline points="74.89,97.77 67.82,101.85" stroke="#287bc1" stroke-width="9" stroke-linecap="round" stroke-linejoin="round" fill="none"/><circle cx="72.77" cy="101.45" r="1.5" fill="#142222"/><polyline points="67.73,79.42 56.28,98.20 58.29,114.70" stroke="#d54f4f" stroke-width="8" stroke-linecap="round" stroke-linejoin="round" fill="none"/><polyline points="61.12,114.70 54.05,118.79" stroke="#d54f4f" stroke-width="9" stroke-linecap="round" stroke-linejoin="round" fill="none"/><circle cx="59.00" cy="118.38" r="1.5" fill="#142222"/><polygon points="56.09,54.54 71.91,61.62 67.73,79.42 60.27,74.29" fill="#bcc4c8" stroke="#36414a" stroke-width=".5"/><polyline points="71.91,61.62 76.16,71.27 75.83,82.88" stroke="#d54f4f" stroke-width="7" stroke-linecap="round" stroke-linejoin="round" fill="none"/><ellipse cx="64.00" cy="39.30" rx="16" ry="18" fill="#c5c9c8" stroke="#36414a" stroke-width=".7"/><path d="M53.0,42.30059662734175 l-7,3 l7,2" fill="#858d8e"/></g><g transform="translate(0,128)"><polyline points="56.18,54.40 52.43,68.89 46.88,81.56" stroke="#287bc1" stroke-width="7" stroke-linecap="round" stroke-linejoin="round" fill="none"/><polyline points="60.21,74.25 61.26,91.71 72.93,97.06" stroke="#287bc1" stroke-width="8" stroke-linecap="round" stroke-linejoin="round" fill="none"/><polyline points="75.76,97.06 68.68,101.14" stroke="#287bc1" stroke-width="9" stroke-linecap="round" stroke-linejoin="round" fill="none"/><polyline points="67.79,79.32 56.58,98.25 59.64,113.93" stroke="#d54f4f" stroke-width="8" stroke-linecap="round" stroke-linejoin="round" fill="none"/><polyline points="62.47,113.93 55.40,118.01" stroke="#d54f4f" stroke-width="9" stroke-linecap="round" stroke-linejoin="round" fill="none"/><circle cx="60.35" cy="117.60" r="1.5" fill="#142222"/><polygon points="56.18,54.40 71.82,61.60 67.79,79.32 60.21,74.25" fill="#bcc4c8" stroke="#36414a" stroke-width=".5"/><polyline points="71.82,61.60 75.57,71.76 74.90,83.56" stroke="#d54f4f" stroke-width="7" stroke-linecap="round" stroke-linejoin="round" fill="none"/><ellipse cx="64.00" cy="39.22" rx="16" ry="18" fill="#c5c9c8" stroke="#36414a" stroke-width=".7"/><path d="M53.0,42.22389060089131 l-7,3 l7,2" fill="#858d8e"/></g><g transform="translate(128,128)"><polyline points="56.30,54.02 53.20,68.37 48.02,81.10" stroke="#287bc1" stroke-width="7" stroke-linecap="round" stroke-linejoin="round" fill="none"/><polyline points="60.14,73.98 60.36,91.96 72.44,96.51" stroke="#287bc1" stroke-width="8" stroke-linecap="round" stroke-linejoin="round" fill="none"/><polyline points="75.27,96.51 68.20,100.59" stroke="#287bc1" stroke-width="9" stroke-linecap="round" stroke-linejoin="round" fill="none"/><polyline points="67.86,78.98 57.11,98.16 60.99,113.15" stroke="#d54f4f" stroke-width="8" stroke-linecap="round" stroke-linejoin="round" fill="none"/><polyline points="63.81,113.15 56.74,117.23" stroke="#d54f4f" stroke-width="9" stroke-linecap="round" stroke-linejoin="round" fill="none"/><circle cx="61.69" cy="116.82" r="1.5" fill="#142222"/><polygon points="56.30,54.02 71.70,61.38 67.86,78.98 60.14,73.98" fill="#bcc4c8" stroke="#36414a" stroke-width=".5"/><polyline points="71.70,61.38 74.80,72.15 73.69,84.15" stroke="#d54f4f" stroke-width="7" stroke-linecap="round" stroke-linejoin="round" fill="none"/><ellipse cx="64.00" cy="38.92" rx="16" ry="18" fill="#c5c9c8" stroke="#36414a" stroke-width=".7"/><path d="M53.0,41.91802831051997 l-7,3 l7,2" fill="#858d8e"/></g><g transform="translate(256,128)"><polyline points="56.44,53.48 54.12,67.61 49.39,80.38" stroke="#287bc1" stroke-width="7" stroke-linecap="round" stroke-linejoin="round" fill="none"/><polyline points="60.07,73.58 58.28,92.59 70.82,96.19" stroke="#287bc1" stroke-width="8" stroke-linecap="round" stroke-linejoin="round" fill="none"/><polyline points="73.65,96.19 66.58,100.27" stroke="#287bc1" stroke-width="9" stroke-linecap="round" stroke-linejoin="round" fill="none"/><polyline points="67.93,78.50 57.81,97.97 62.33,112.37" stroke="#d54f4f" stroke-width="8" stroke-linecap="round" stroke-linejoin="round" fill="none"/><polyline points="65.16,112.37 58.09,116.45" stroke="#d54f4f" stroke-width="9" stroke-linecap="round" stroke-linejoin="round" fill="none"/><circle cx="63.04" cy="116.04" r="1.5" fill="#142222"/><polygon points="56.44,53.48 71.56,61.04 67.93,78.50 60.07,73.58" fill="#bcc4c8" stroke="#36414a" stroke-width=".5"/><polyline points="71.56,61.04 73.88,72.49 72.25,84.70" stroke="#d54f4f" stroke-width="7" stroke-linecap="round" stroke-linejoin="round" fill="none"/><ellipse cx="64.00" cy="38.48" rx="16" ry="18" fill="#c5c9c8" stroke="#36414a" stroke-width=".7"/><path d="M53.0,41.48134915461304 l-7,3 l7,2" fill="#858d8e"/></g><g transform="translate(384,128)"><polyline points="56.60,52.90 55.16,66.69 50.96,79.47" stroke="#287bc1" stroke-width="7" stroke-linecap="round" stroke-linejoin="round" fill="none"/><polyline points="59.98,73.15 55.60,93.02 68.31,96.25" stroke="#287bc1" stroke-width="8" stroke-linecap="round" stroke-linejoin="round" fill="none"/><polyline points="71.14,96.25 64.07,100.33" stroke="#287bc1" stroke-width="9" stroke-linecap="round" stroke-linejoin="round" fill="none"/><polyline points="68.02,77.98 58.63,97.70 63.68,111.59" stroke="#d54f4f" stroke-width="8" stroke-linecap="round" stroke-linejoin="round" fill="none"/><polyline points="66.51,111.59 59.44,115.68" stroke="#d54f4f" stroke-width="9" stroke-linecap="round" stroke-linejoin="round" fill="none"/><circle cx="64.39" cy="115.27" r="1.5" fill="#142222"/><polygon points="56.60,52.90 71.40,60.67 68.02,77.98 59.98,73.15" fill="#bcc4c8" stroke="#36414a" stroke-width=".5"/><polyline points="71.40,60.67 72.84,72.80 70.63,85.22" stroke="#d54f4f" stroke-width="7" stroke-linecap="round" stroke-linejoin="round" fill="none"/><ellipse cx="64.00" cy="38.01" rx="16" ry="18" fill="#c5c9c8" stroke="#36414a" stroke-width=".7"/><path d="M53.0,41.00729375141023 l-7,3 l7,2" fill="#858d8e"/></g></svg>