<svg xmlns="http://www.w3.org/2000/svg" width="1536" height="768" viewBox="0 0 512 256"><rect width="512" height="256" fill="#fff"/><g transform="translate(0,0)"><polyline points="57.08,60.54 57.57,73.87 54.76,83.21" stroke="#d54f4f" stroke-width="7" stroke-linecap="round" stroke-linejoin="round" fill="none"/><polyline points="59.90,77.52 51.49,87.58 57.25,107.51" stroke="#d54f4f" stroke-width="8" stroke-linecap="round" stroke-linejoin="round" fill="none"/><polyline points="60.08,110.78 53.01,106.69" stroke="#d54f4f" stroke-width="9" stroke-linecap="round" stroke-linejoin="round" fill="none"/><circle cx="57.96" cy="112.00" r="1.5" fill="#142222"/><polyline points="68.10,72.78 60.73,84.56 72.94,102.71" stroke="#287bc1" stroke-width="8" stroke-linecap="round" stroke-linejoin="round" fill="none"/><polyline points="75.77,105.98 68.70,101.89" stroke="#287bc1" stroke-width="9" stroke-linecap="round" stroke-linejoin="round" fill="none"/><polygon points="70.92,52.20 57.08,60.54 59.90,77.52 68.10,72.78" fill="#bcc4c8" stroke="#36414a" stroke-width=".5"/><polyline points="70.92,52.20 70.43,64.97 66.80,73.51" stroke="#287bc1" stroke-width="7" stroke-linecap="round" stroke-linejoin="round" fill="none"/><ellipse cx="64.00" cy="37.59" rx="16" ry="18" fill="#c5c9c8" stroke="#36414a" stroke-width=".7"/></g><g transform="translate(128,0)"><polyline points="56.88,60.16 56.41,72.93 52.98,81.68" stroke="#d54f4f" stroke-width="7" stroke-linecap="round" stroke-linejoin="round" fill="none"/><polyline points="59.98,77.30 52.31,88.30 58.60,108.29" stroke="#d54f4f" stroke-width="8" stroke-linecap="round" stroke-linejoin="round" fill="none"/><polyline points="61.42,111.55 54.35,107.47" stroke="#d54f4f" stroke-width="9" stroke-linecap="round" stroke-linejoin="round" fill="none"/><circle cx="59.30" cy="112.78" r="1.5" fill="#142222"/><polyline points="68.02,72.46 58.23,81.00 69.40,99.95" stroke="#287bc1" stroke-width="8" stroke-linecap="round" stroke-linejoin="round" fill="none"/><polyline points="72.22,103.22 65.15,99.13" stroke="#287bc1" stroke-width="9" stroke-linecap="round" stroke-linejoin="round" fill="none"/><polygon points="71.12,52.04 56.88,60.16 59.98,77.30 68.02,72.46" fill="#bcc4c8" stroke="#36414a" stroke-width=".5"/><polyline points="71.12,52.04 71.59,65.37 68.57,74.51" stroke="#287bc1" stroke-width="7" stroke-linecap="round" stroke-linejoin="round" fill="none"/><ellipse cx="64.00" cy="37.32" rx="16" ry="18" fill="#c5c9c8" stroke="#36414a" stroke-width=".7"/></g><g transform="translate(256,0)"><polyline points="56.70,59.98 55.28,72.12 51.26,80.25" stroke="#d54f4f" stroke-width="7" stroke-linecap="round" stroke-linejoin="round" fill="none"/><polyline points="60.07,77.28 53.02,89.04 59.94,109.07" stroke="#d54f4f" stroke-width="8" stroke-linecap="round" stroke-linejoin="round" fill="none"/><polyline points="62.77,112.33 55.70,108.25" stroke="#d54f4f" stroke-width="9" stroke-linecap="round" stroke-linejoin="round" fill="none"/><circle cx="60.65" cy="113.56" r="1.5" fill="#142222"/><polyline points="67.93,72.35 56.39,77.95 65.70,97.75" stroke="#287bc1" stroke-width="8" stroke-linecap="round" stroke-linejoin="round" fill="none"/><polyline points="68.53,101.02 61.46,96.93" stroke="#287bc1" stroke-width="9" stroke-linecap="round" stroke-linejoin="round" fill="none"/><polygon points="71.30,52.09 56.70,59.98 60.07,77.28 67.93,72.35" fill="#bcc4c8" stroke="#36414a" stroke-width=".5"/><polyline points="71.30,52.09 72.72,65.87 70.32,75.57" stroke="#287bc1" stroke-width="7" stroke-linecap="round" stroke-linejoin="round" fill="none"/><ellipse cx="64.00" cy="37.26" rx="16" ry="18" fill="#c5c9c8" stroke="#36414a" stroke-width=".7"/></g><g transform="translate(384,0)"><polyline points="56.52,59.75 54.22,71.21 49.66,78.73" stroke="#d54f4f" stroke-width="7" stroke-linecap="round" stroke-linejoin="round" fill="none"/><polyline points="60.14,77.20 53.86,89.83 61.29,109.84" stroke="#d54f4f" stroke-width="8" stroke-linecap="round" stroke-linejoin="round" fill="none"/><polyline points="64.12,113.11 57.05,109.03" stroke="#d54f4f" stroke-width="9" stroke-linecap="round" stroke-linejoin="round" fill="none"/><circle cx="62.00" cy="114.33" r="1.5" fill="#142222"/><polyline points="67.86,72.20 55.46,76.12 62.11,96.27" stroke="#287bc1" stroke-width="8" stroke-linecap="round" stroke-linejoin="round" fill="none"/><polyline points="64.94,99.53 57.87,95.45" stroke="#287bc1" stroke-width="9" stroke-linecap="round" stroke-linejoin="round" fill="none"/><polygon points="71.48,52.08 56.52,59.75 60.14,77.20 67.86,72.20" fill="#bcc4c8" stroke="#36414a" stroke-width=".5"/><polyline points="71.48,52.08 73.78,66.20 71.96,76.39" stroke="#287bc1" stroke-width="7" stroke-linecap="round" stroke-linejoin="round" fill="none"/><ellipse cx="64.00" cy="37.14" rx="16" ry="18" fill="#c5c9c8" stroke="#36414a" stroke-width=".7"/></g><g transform="translate(0,128)"><polyline points="56.37,59.49 53.28,70.27 48.25,77.21" stroke="#d54f4f" stroke-width="7" stroke-linecap="round" stroke-linejoin="round" fill="none"/><polyline points="60.21,77.07 54.81,90.63 62.64,110.62" stroke="#d54f4f" stroke-width="8" stroke-linecap="round" stroke-linejoin="round" fill="none"/><polyline points="65.46,113.89 58.39,109.80" stroke="#d54f4f" stroke-width="9" stroke-linecap="round" stroke-linejoin="round" fill="none"/><circle cx="63.34" cy="115.11" r="1.5" fill="#142222"/><polyline points="67.79,72.00 55.38,75.88 58.86,95.51" stroke="#287bc1" stroke-width="8" stroke-linecap="round" stroke-linejoin="round" fill="none"/><polyline points="61.69,98.77 54.62,94.69" stroke="#287bc1" stroke-width="9" stroke-linecap="round" stroke-linejoin="round" fill="none"/><polygon points="71.63,52.02 56.37,59.49 60.21,77.07 67.79,72.00" fill="#bcc4c8" stroke="#36414a" stroke-width=".5"/><polyline points="71.63,52.02 74.72,66.37 73.44,76.97" stroke="#287bc1" stroke-width="7" stroke-linecap="round" stroke-linejoin="round" fill="none"/><ellipse cx="64.00" cy="36.98" rx="16" ry="18" fill="#c5c9c8" stroke="#36414a" stroke-width=".7"/></g><g transform="translate(128,128)"><polyline points="56.24,59.29 52.50,69.46 47.06,75.87" stroke="#d54f4f" stroke-width="7" stroke-linecap="round" stroke-linejoin="round" fill="none"/><polyline points="60.27,76.99 55.78,91.44 63.98,111.40" stroke="#d54f4f" stroke-width="8" stroke-linecap="round" stroke-linejoin="round" fill="none"/><polyline points="66.81,114.66 59.74,110.58" stroke="#d54f4f" stroke-width="9" stroke-linecap="round" stroke-linejoin="round" fill="none"/><circle cx="64.69" cy="115.89" r="1.5" fill="#142222"/><polyline points="67.73,71.86 56.04,77.16 56.20,95.35" stroke="#287bc1" stroke-width="8" stroke-linecap="round" stroke-linejoin="round" fill="none"/><polyline points="59.03,98.61 51.96,94.53" stroke="#287bc1" stroke-width="9" stroke-linecap="round" stroke-linejoin="round" fill="none"/><polygon points="71.76,52.01 56.24,59.29 60.27,76.99 67.73,71.86" fill="#bcc4c8" stroke="#36414a" stroke-width=".5"/><polyline points="71.76,52.01 75.50,66.50 74.69,77.42" stroke="#287bc1" stroke-width="7" stroke-linecap="round" stroke-linejoin="round" fill="none"/><ellipse cx="64.00" cy="36.87" rx="16" ry="18" fill="#c5c9c8" stroke="#36414a" stroke-width=".7"/></g><g transform="translate(256,128)"><polyline points="56.14,59.46 51.89,69.12 46.15,75.11" stroke="#d54f4f" stroke-width="7" stroke-linecap="round" stroke-linejoin="round" fill="none"/><polyline points="60.31,77.26 56.50,92.32 65.33,112.18" stroke="#d54f4f" stroke-width="8" stroke-linecap="round" stroke-linejoin="round" fill="none"/><polyline points="68.16,115.44 61.09,111.36" stroke="#d54f4f" stroke-width="9" stroke-linecap="round" stroke-linejoin="round" fill="none"/><circle cx="66.04" cy="116.67" r="1.5" fill="#142222"/><polyline points="67.69,72.09 57.11,79.35 54.39,95.61" stroke="#287bc1" stroke-width="8" stroke-linecap="round" stroke-linejoin="round" fill="none"/><polyline points="57.21,98.87 50.14,94.79" stroke="#287bc1" stroke-width="9" stroke-linecap="round" stroke-linejoin="round" fill="none"/><polygon points="71.86,52.33 56.14,59.46 60.31,77.26 67.69,72.09" fill="#bcc4c8" stroke="#36414a" stroke-width=".5"/><polyline points="71.86,52.33 76.11,66.89 75.67,78.06" stroke="#287bc1" stroke-width="7" stroke-linecap="round" stroke-linejoin="round" fill="none"/><ellipse cx="64.00" cy="37.12" rx="16" ry="18" fill="#c5c9c8" stroke="#36414a" stroke-width=".7"/></g><g transform="translate(384,128)"><polyline points="56.06,60.17 51.48,69.47 45.52,75.15" stroke="#d54f4f" stroke-width="7" stroke-linecap="round" stroke-linejoin="round" fill="none"/><polyline points="60.34,78.04 56.85,93.37 66.68,112.95" stroke="#d54f4f" stroke-width="8" stroke-linecap="round" stroke-linejoin="round" fill="none"/><polyline points="69.51,116.22 62.43,112.14" stroke="#d54f4f" stroke-width="9" stroke-linecap="round" stroke-linejoin="round" fill="none"/><circle cx="67.38" cy="117.44" r="1.5" fill="#142222"/><polyline points="67.66,72.84 57.53,80.80 53.65,96.12" stroke="#287bc1" stroke-width="8" stroke-linecap="round" stroke-linejoin="round" fill="none"/><polyline points="56.48,99.38 49.41,95.30" stroke="#287bc1" stroke-width="9" stroke-linecap="round" stroke-linejoin="round" fill="none"/><polygon points="71.94,53.15 56.06,60.17 60.34,78.04 67.66,72.84" fill="#bcc4c8" stroke="#36414a" stroke-width=".5"/><polyline points="71.94,53.15 76.52,67.74 76.35,79.07" stroke="#287bc1" stroke-width="7" stroke-linecap="round" stroke-linejoin="round" fill="none"/><ellipse cx="64.00" cy="37.88" rx="16" ry="18" fill="#c5c9c8" stroke="#36414a" stroke-width=".7"/></g></svg>